<?xml version="1.0" encoding="UTF-8"?>
<svg version="1.1" viewBox="0 0 2048 823" width="1280" height="1280" xmlns="http://www.w3.org/2000/svg">
<path transform="translate(401,30)" d="m0 0h33l41 3 30 5 23 6 28 10 21 9 19 10 19 12 16 13 10 9 18 18 11 14 12 17 9 15 13 24 16 36 11 25 8 18 6 19 5 5 5 3 3-4 10-30 16-37 10-19 13-21 12-17 11-13 9-11 11-11 8-7 14-12 18-13 18-12 15-9 18-10 16-8 19-8 20-7 23-7 29-6 33-3h30l38 3 28 5 25 6 36 12 16 7 21 11 19 12 11 8 17 12 13 11 10 11 10 15 6 16 5 24 6 11 8 8 10 15 3 10v18l-4 20-6 17-12 23-12 17-11 14-12 13-10 9-13 8-14 6-5 1h-16l-15-4-17-8-27-16-16-9-19-7-16-4h-21l-16 3-18 6-17 9-16 12-10 9-9 12-9 17-5 16-5 21v13l3 6 5 5 8 5 12 5 14 4 7 1h16l16-3 17-6 19-10 11-7 18-10 13-5 14-3h14l20 4 17 8 12 8 16 13 15 14 12 13 11 14 10 13 9 16 7 16 9 26 6 10 8 6 4-7 12-27 10-20 24-38 9-11 8-7 17-9 17-4h25l24 4 7 2 8 1-5-5-14-9-26-15-12-8-11-9-10-9-11-13-12-17-8-13-8-16-9-23-7-24-6-31-1-7-1-18v-20l2-22 4-23 3-15 8-23 9-19 8-12 9-12 9-10 12-11 18-14 15-9 16-8 19-8 27-8 26-6 31-5 24-2 22-1h37l36 2 30 5 30 7 36 11 28 10 23 10 12 7 12 9 7 7 9 13 6 12 3 13 1 11v9l4 10 4 2 6 4 6 5 4 6 3 10v16l-4 18-6 15-12 23-8 12-10 13-10 10-10 7-7 3-7 1-1-1-15-2-16-5-16-8-22-12-11-4-28-9-6-1v3l4 1 10 5v1l-17 1 3 5 16 6 37 13 24 10 23 11 14 9 15 13 11 11 11 14 9 14 11 21 14 35 13 27 8 21 6 21 4 25 2 25-1 33-3 24-7 25-8 20-11 21-12 17-8 9-8 7-9 8-13 8-25 13-25 9-31 9-29 6-31 4-25 2-22 1h-27l-25-1-25-3-25-5-25-7-31-11-29-13-36-18-27-16-29-17-18-10-18-12-13-10-5-2-3 9-8 14-7 9-9 10-8 8-13 10-23 15-22 13-19 9-22 8-30 8-27 4-30 2h-23l-35-3-20-4-25-7-18-6-28-12-29-14-26-14-22-12-21-12-22-14-17-12-18-14-13-11-19-19-9-11-11-14-10-14-9-14-17-33-12-31-10-34-6-14-3-1-8 7-8 8-7 8-12 12-17 12-11 5-22 9-4 1 9 17 9 14 7 15 10 25 5 12 18 32 8 20 3 19v17l-5 19-9 16-12 13-14 11-19 10-21 8-25 7-31 6-32 4-29 2-26 1h-52l-40-3-33-5-24-6-26-9-33-15-24-12-23-13-22-12-17-10-24-16-13-10-11-10-8-7-15-15-7-8-12-14-12-17-11-18-12-22-12-26-10-26-7-22-6-27-4-27-2-19v-45l4-40 6-33 8-27 7-20 10-23 11-21 12-20 14-19 13-15 30-30 8-7 16-12 27-18 17-10 24-12 24-9 29-9 40-9 35-3zm-10 41-29 2-19 3-36 9-27 9-24 11-13 7-22 14-14 10-16 13-10 9-22 22-10 13-11 16-11 17-9 16-11 26-7 23-5 21-5 31-3 31v22l3 33 5 30 7 30 5 15 12 26 8 17 6 7 3 1 1-2-6-34-5-32-2-27v-34l2-22 7-39 8-30 11-27 13-27 13-21 8-11 11-14 12-14 9-10 12-11 14-12 11-8 12-9 26-16 25-13 28-11 29-8 24-5 39-6 20-2h25l40 4 25 4 32 7 5-1-1-5-11-9-20-12-27-11-13-4-39-9-25-2-22-1zm1255 2-21 2-38 7-20 5-21 7-23 11-19 13-10 9-8 7-10 12-9 15-8 16-5 15-5 26-1 9v41l4 30 3 16 11 29 9 17 7 8 4 1 1-1v-16l-3-23v-47l4-24 7-23 12-25 9-15 9-11 14-14 14-10 14-9 23-12 21-8 28-7 37-6 28-3 15-1h42l39 3 26 5 46 12 11 3 5-1 1-4-7-8-16-10-18-8-23-9-31-10-34-8-30-5-21-1zm-557 4-40 4-28 6-27 9-28 13-15 8-19 12-14 10-13 9-10 8-10 9-12 11-15 16-10 13-11 15-12 21-12 24-9 24-6 24-6 39-1 13v49l2 16 5 26 7 28 8 21 9 19 8 12 7 8h2l-1-9-8-49-1-12-1-36v-16l2-24 6-31 9-30 10-24 8-16 10-18 12-19 7-10 10-13 11-12 12-11 10-9 14-11 14-10 23-15 25-14 19-10 33-13 21-6 32-5 24-2h37l24 2 61 14h7l3-1-2-4-10-8-23-13-16-8-33-11-25-6-24-4-27-3zm-636 218-13 5-25 14-3 4 6 4 9 2 22 1 15-2 7-4 3-5v-8l-3-6-6-5zm68 19-4 5-8 19-7 9-7 7-12 6-17 4-17 2-69 1-23 1-5 3-3 19-1 16 3 2h159l17-3 12-6 5-5 4-5 3-8 1-7v-18l-3-14-7-13-9-9zm1156 0-3 2 1 8 6 8 10 7 19 9 22 6 66 12 37 8 33 9h4v-5l-11-10-21-12-22-11-31-11-21-7-36-7zm-457 159-10 2-16 8-26 15-17 8-15 5-19 4-9 1-36 1-3 3 7 8 12 9 16 8 20 8 19 4h24l17-3 16-5 17-8 19-12 27-13 9-4 3-3-4-8-12-12-14-10-14-5zm271 36-12 3-10 9-7 8-13 20-9 15-8 16-5 15-2 9 1 10 4 12 10 9 16 8 8 3 18-36 8-14 10-15 8-10 10-10 14-9 3-1h22l18 4 21 8 19 9 16 9 16 8 20 9 24 8 12 2 12 1h17l26-2 13-2 15-6 8-6 4-6 2-6-1-7-6-9-9-8-21-12-6 2-15 8-19 7-13 3-25 4h-23l-33-5-16-5-23-10-20-11-19-12-13-5-19-8-15-3zm-903 18-15 3-38 12-34 8-24 4-37 3h-33l-31-3h-11l-2 2 5 6 19 12 21 10 21 8 21 5 14 2h43l30-3 18-3 17-4 21-7 23-9 15-5 3-4-5-13-8-11-10-8-11-5z" fill="#02A3A2"/>
<path transform="translate(1667,31)" d="m0 0h37l36 2 30 5 30 7 36 11 28 10 23 10 12 7 12 9 7 7 9 13 6 12 3 13 1 11v9l4 10 4 2 6 4 6 5 4 6 3 10v16l-4 18-6 15-12 23-8 12-10 13-10 10-10 7-7 3-7 1-1-1-15-2-16-5-16-8-22-12-11-4-28-9-6-1v3l4 1 10 5v1l-17 1 3 5 16 6 37 13 24 10 23 11 14 9 15 13 11 11 11 14 9 14 11 21 14 35 13 27 8 21 6 21 4 25 2 25-1 33-3 24-7 25-8 20-11 21-12 17-8 9-8 7-9 8-13 8-25 13-25 9-31 9-29 6-31 4-25 2-22 1h-27l-25-1-25-3-25-5-25-7-31-11-29-13-36-18-27-16-29-17-18-10-18-12-14-11-11-25-2-13v-16l2-15 12-27 10-20 24-38 9-11 8-7 17-9 17-4h25l24 4 7 2 8 1-5-5-14-9-26-15-12-8-11-9-10-9-11-13-12-17-8-13-8-16-9-23-7-24-6-31-1-7-1-18v-20l2-22 4-23 3-15 8-23 9-19 8-12 9-12 9-10 12-11 18-14 15-9 16-8 19-8 27-8 26-6 31-5 24-2zm-21 42-21 2-38 7-20 5-21 7-23 11-19 13-10 9-8 7-10 12-9 15-8 16-5 15-5 26-1 9v41l4 30 3 16 11 29 9 17 7 8 4 1 1-1v-16l-3-23v-47l4-24 7-23 12-25 9-15 9-11 14-14 14-10 14-9 23-12 21-8 28-7 37-6 28-3 15-1h42l39 3 26 5 46 12 11 3 5-1 1-4-7-8-16-10-18-8-23-9-31-10-34-8-30-5-21-1zm31 241-3 2 1 8 6 8 10 7 19 9 22 6 66 12 37 8 33 9h4v-5l-11-10-21-12-22-11-31-11-21-7-36-7zm-186 195-12 3-10 9-7 8-13 20-9 15-8 16-5 15-2 9 1 10 4 12 10 9 16 8 8 3 18-36 8-14 10-15 8-10 10-10 14-9 3-1h22l18 4 21 8 19 9 16 9 16 8 20 9 24 8 12 2 12 1h17l26-2 13-2 15-6 8-6 4-6 2-6-1-7-6-9-9-8-21-12-6 2-15 8-19 7-13 3-25 4h-23l-33-5-16-5-23-10-20-11-19-12-13-5-19-8-15-3z" fill="#02A3A2"/>
<path transform="translate(458,109)" d="m0 0h25l40 4 25 4 32 7h5l-1-5 9 5 11 9 21 21 7 8 8 10 10 13 12 21 7 15 6 16 7 27 2 12 1 13v40l-2 18-4 19-8 19-12 17-12 12-14 9-15 7-16 4-8 1-186 1h-13l-9 1-4 1-8-2h-55l-41 1-2 5v18l3 18 4 12 6 11 14 16 8 7 16 11 16 8 19 7 9 3v1l-7 2 4 5 19 12 21 10 21 8 21 5 14 2h43l30-3 18-3 17-4 21-7 23-9 15-5 2-3-1-5 3 1 8 16 6 15 4 18 1 12-2 11-5 12-7 9-9 10-16 10-15 7-25 8-23 5-32 5-30 3-27 2-36 1h-21l-35-2-33-5-36-8-33-11-25-11-14-8-12-8-18-13-11-10-8-7-10-10-11-14-12-16-11-15-6-9-1-6 6 3-4-23-7-44-2-27v-34l2-22 7-39 8-30 11-27 13-27 13-21 8-11 11-14 12-14 9-10 13-12 14-12 11-8 12-9 26-16 25-13 28-11 29-8 24-5 39-6zm-5 186-13 5-25 14-3 4 6 4 9 2 22 1 15-2 7-4 3-5v-8l-3-6-6-5zm68 19-4 5-8 19-7 9-7 7-12 6-17 4-17 2-69 1-23 1-5 3-3 19-1 16 3 2h159l17-3 12-6 5-5 4-5 3-8 1-7v-18l-3-14-7-13-9-9z" fill="#68D4D3"/>
<path transform="translate(1140,118)" d="m0 0h37l24 2 61 14h10l-2-4 6 2 14 10 9 7 12 12 7 12 2 5v18l-5 16-5 12-9 17-12 18-8 10-9 10-4 5-11 9-9 6-13 3h-8l-12-3-10-4-21-12-20-13-17-8-19-5-15-2h-20l-15 2-24 7-21 10-14 10-11 9-11 11-11 17-10 21-5 18-2 18v19l3 22 6 20 8 16 9 14 7 7 4 5 8 7 11 8 14 8 13 6 21 6-3 4 7 8 13 9 16 8 21 8 16 3h24l17-3 16-5 17-8 19-12 27-13 9-4 2-2-1-4 5 2 12 13 8 11 12 17 8 16 3 11v12l-6 16-8 11-11 12-11 9-15 10-21 13-18 10-25 10-20 6-29 6-25 3-12 1h-28l-36-4-23-5-27-8-19-7-26-12-15-8-17-11-12-8-14-10-13-10-15-14-15-15-9-11-10-13-7-10-5-10 1-3 7 8 2 1-6-32-4-26-1-12-1-36v-16l2-24 6-31 9-30 10-24 8-16 10-18 12-19 7-10 10-13 11-12 13-12 10-9 14-11 14-10 23-15 25-14 19-10 33-13 21-6 32-5z" fill="#68D4D3"/>
<path transform="translate(1719,113)" d="m0 0h42l39 3 26 5 46 12 11 3h4l3-4 3 3v13l-6 20-6 15-12 21-12 17-8 8-11 6h-11l-20-7-31-13-24-8-22-5-15-2h-44l-18 2-18 4-13 5-11 7-6 7-4 8-3 15 1 13 5 12 9 12 7 7 15 9 15 6 18 5 9 2-2 2 1 8 5 7 10 7 19 9 22 6 66 12 37 8 37 10v-5l4 2 8 8 14 20 8 17 7 19 4 18 3 25v45l-4 28-6 22-9 22-9 16-11 13-9 10-15 12-15 9-23 10-26 8-25 6-36 6-33 3-31 2h-18l-39-3-25-4-24-5-19-5-26-9-21-9-24-11-11-7 4-4 8-16 14-27 10-15 9-12 12-12 14-9 3-1h22l18 4 21 8 19 9 16 9 16 8 20 9 24 8 12 2 12 1h17l26-2 13-2 15-6 8-6 4-8 1-8-6-10-9-8-21-12-4-1 6-15 1-4v-9l-4-13-4-6-1-3h-2l-5-5-15-9-19-7-23-6-49-9-27-7-33-11-25-11-22-12-16-9-14-10-10-9v-2l-4-2-7-7-7-10-1-5 6 4h2v-16l-3-23v-47l4-24 7-23 12-25 9-15 9-11 15-15 14-10 14-9 23-12 21-8 28-7 37-6 28-3z" fill="#68D4D3"/>
<path transform="translate(401,30)" d="m0 0h33l41 3 30 5 23 6 28 10 21 9 19 10 19 12 16 13 10 9 18 18 11 14 12 17 9 15 13 24 16 36 8 19v21l2 18 1 26-1 20-4 26-6 24-8 19-7 11-8 10-7 9-12 12-13 10-18 11-15 6-30 8h-5v2l10 2 15 5 17 9 16 15 7 6 6 11 9 14 7 15 10 25 5 12 18 32 8 20 3 19v17l-5 19-9 16-12 13-14 11-19 10-21 8-25 7-31 6-32 4-29 2-26 1h-52l-40-3-33-5-24-6-26-9-33-15-24-12-23-13-22-12-17-10-24-16-13-10-11-10-8-7-15-15-7-8-12-14-12-17-11-18-12-22-12-26-10-26-7-22-6-27-4-27-2-19v-45l4-40 6-33 8-27 7-20 10-23 11-21 12-20 14-19 13-15 30-30 8-7 16-12 27-18 17-10 24-12 24-9 29-9 40-9 35-3zm-10 41-29 2-19 3-36 9-27 9-24 11-13 7-22 14-14 10-16 13-10 9-22 22-10 13-11 16-11 17-9 16-11 26-7 23-5 21-5 31-3 31v22l3 33 5 30 7 30 5 15 12 26 8 17 3 7 5 9 10 14 10 13 12 16 12 13 8 8 11 9 10 8 16 11 13 8 16 8 24 10 25 8 36 8 33 5 35 2h21l36-1 48-4 36-5 24-5 26-8 12-5 13-7 11-8 10-11 6-10 4-11 1-13-3-17-5-16-9-20-6-7-5-10-7-8-10-7-9-4h-12l-15 3-38 12-34 8-24 4-37 3h-33l-31-3-17-5-16-6-16-8-13-9-10-8-7-7-7-9-6-10-4-10-3-15-1-7v-18l2-5 41-1h55l10 2 2-1 9-1h33l166-1 18-3 13-5 15-8 10-8 10-10 12-18 8-20 4-23 1-11v-40l-2-19-6-26-6-18-8-18-11-20-9-12-13-16-14-15-15-15-11-8-11-7-9-7-19-11-28-11-14-4-35-8-25-2-22-1z" fill="#02A3A2"/>
<path transform="translate(411,222)" d="m0 0h16l19 3 17 5 17 8 10 8 9 9 9 13 6 13 3 10 2 26-5 11-4 10-7 9-8 8-12 6-17 4-17 2-69 1-23 1-6 1-7-1h-68l-3-2v-22l2-20 5-13 7-13 10-16 8-10 12-11 14-11 19-12 17-8 16-5 15-3zm42 73-13 5-25 14-3 4 6 4 9 2 22 1 15-2 7-4 3-5v-8l-3-6-6-5z" fill="#02A3A2"/>
<path transform="translate(1962,450)" d="m0 0 3 4 11 23 9 27 4 18 3 24 1 16-1 33-3 24-7 25-8 20-11 21-12 17-8 9-8 7-9 8-13 8-25 13-25 9-31 9-29 6-31 4-25 2-22 1h-27l-25-1-25-3-25-5-25-7-31-11-29-13-36-18-1-2 16 2 28 8 43 9 19 3 24 2 20 1h29l25-1 28-3 32-5 34-8 33-11 25-10 19-10 13-9 10-9 14-14 11-14 11-16 12-23 10-30 5-25 3-27v-30l-2-32-1-5z" fill="#68D4D3"/>
<path transform="translate(700,605)" d="m0 0 4 1 12 21 8 19 3 14 1 8v17l-5 19-9 16-12 13-14 11-19 10-21 8-25 7-31 6-32 4-29 2-26 1h-52l-40-3-33-5-24-6-26-9-33-15-24-12-3-2v-2l6 1 28 6 21 5 43 6 32 2h61l42-3 45-6 28-6 25-7 21-8 23-12 12-8 12-11 10-11 9-14 5-11 4-15 1-7 1-23z" fill="#68D4D3"/>
<path transform="translate(1366,576)" d="m0 0 4 5 3 5 8 6 4-4-1 12v16l3 16 9 20-1 2-3-1-3 9-8 14-7 9-9 10-8 8-13 10-23 15-22 13-19 9-22 8-30 8-27 4-30 2h-23l-35-3-20-4-25-7-18-6-28-12-29-14-3-3h7l29 7 32 5 19 2 16 1 43-1 21-2 31-6 19-5 28-10 18-8 20-11 17-11 19-13 13-10 5-4 5-6 5-5 12-16 7-11 6-17 3-16 1-7z" fill="#68D4D3"/>
<path transform="translate(1937,161)" d="m0 0 3 3 2 3 5 4 4 2 6 5 4 6 3 10v16l-4 18-6 15-12 23-8 12-10 13-10 10-10 7-7 3-7 1-1-1-15-2-16-5-16-8-22-12-11-4-28-9-6-1v3l4 1 10 5v1l-17 1 3 5 4 3-13-2-23-6-21-4-42-7-19-5-16-8-2-2 1-4 8-4 19-3h23l23 2 20 4 32 10 14 7 7 3 23 7 5 1h24l14-3 13-7 10-9 12-12 9-11 11-17 14-27 9-23z" fill="#68D4D3"/>
<path transform="translate(1366,191)" d="m0 0 9 12 8 9 7 11 3 10v18l-4 20-6 17-12 23-12 17-11 14-12 13-10 9-13 8-14 6-5 1h-16l-15-4-17-8-27-16-3-2 1-2 26-2 18-6 16-9 16-12 10-9 2-3h2l2-4 9-10 8-11 16-24 13-25 5-16z" fill="#68D4D3"/>
<path transform="translate(728,252)" d="m0 0 3 4 8 18 6 19 5 5 5 3 2-1-1 10-5 30-2 22v51l2 18 4 16v13l-2-3-3-5-5 2-13 13-7 8-12 12-17 12-11 5-22 9-4 1 2 6-7-6-8-8-9-7-15-8-25-8v-2l28-7 15-5 16-8 17-12 13-12 8-9 12-16 6-10 7-17 7-29 3-21 1-27-2-30-1-7v-16z" fill="#68D4D3"/>
<path transform="translate(1090,299)" d="m0 0h24l16 3 12 5 19 12 12 9 3 4-8-1h-21l-16 3-18 6-17 9-16 12-10 9-9 12-9 17-5 16-5 21-1 12h-6l-8-8-10-22-3-13-1-10v-14l3-21 6-16 8-11 11-11 10-7 14-8 15-6z" fill="#68D4D3"/>
<path transform="translate(379,65)" d="m0 0h26l36 2 36 4 30 5 26 7 29 11 8 6 6 7v5l-5-2-16-10-14-6-20-8-47-11-25-2-22-1h-36l-29 2-19 3-36 9-27 9-24 11-13 7-22 14-14 10-16 13-10 9-21 21-10 13-11 16-11 17-9 16-11 26-7 23-5 21-5 31-3 31v22l3 33 5 30 7 30 5 15 12 26 3 10 3 6v3l-4-2-7-10-5-9-8-16-5-13-4-13-3-7-3-16-5-15-2-17-2-32v-16l2-36 6-35 6-32 5-18 12-29 5-12 6-9 7-8 13-20 5-6 4-7h2v-2h2l2-4 9-11 8-8 17-12 8-6 20-12 10-5 7-5 9-4 17-9 26-10 31-9 51-8z" fill="#049594"/>
<path transform="translate(1083,70)" d="m0 0h33l17 2 20 4 21 4 18 5 27 8 21 8 9 6 8 7 3 5v3l-5-2-27-15-21-8-27-8-23-5-27-4-18-2h-23l-40 4-28 6-27 9-28 13-15 8-19 12-14 10-13 9-10 8-10 9-12 11-14 15-10 13-11 15-12 21-12 24-9 24-6 24-6 39-1 13v49l2 16 5 26 7 28 8 21 8 17 3 8v3l-4-1-6-7-8-13-8-20-4-17-2-5-4-25-3-9-2-23-1-24 1-19 4-38 2-24 2-9 2-1-1-7h2l-1-4 2-5 3-4 6-23 8-17 6-9 8-15 4-8 5-8h2l2-4 11-13 19-19 10-8 7-7 5-4h2v-2l22-14 5-3h2v-2l14-9 16-9 11-5 10-5 13-5 11-4 21-5 26-4 18-4z" fill="#049594"/>
<path transform="translate(318,40)" d="m0 0 3 1-3 3-15 6-14 4-11 2-16 5-9 3v2l-13 10-7 4-8 2-6 4-15 11-8 6-11 5-10 4-1 2h-2l-2 4-21 24-8 7-4 3h-2l-1 3h-2l-2 5-8 10-7 6-7 14-10 17-13 23-8 15-4 11-10 37-4 18-4 47v18l2 23 4 16v15l1 16 3 18 4 20 4 15 3 10 4 11 3 9 6 15 7 17 9 15 9 14 7 14 7 9 9 11 8 10 5 5v2l4 2 3 2v2l4 2 7 7 6 7 12 9 17 12 16 8 24 15 11 6 9 7 1 4-7-1-29-16-17-10-24-16-13-10-11-10-8-7-15-15-7-8-12-14-12-17-11-18-12-22-12-26-10-26-7-22-6-27-4-27-2-19v-45l4-40 6-33 8-27 7-20 10-23 11-21 12-20 14-19 13-15 30-30 8-7 16-12 27-18 17-10 24-12 24-9 29-9z" fill="#059694"/>
<path transform="translate(382,479)" d="m0 0 3 1 43 1 9-1 136 1 7 1v2l-24 7-34 12-23 6-31 6-27 3h-28l-19-3-13-4-25-10-15-8-7-6-1-3 3-3 2-1h38z" fill="#68D4D3"/>
<path transform="translate(1659,66)" d="m0 0h43l28 2 30 4 23 5 12 2 33 10 27 11 11 5 8 4 6 5v2l4 2 6 7-1 3-5-1-8-6-14-8-34-14-34-11-34-8-30-5-21-1h-63l-21 2-38 7-20 5-21 7-23 11-19 13-10 9-8 7-11 14-12 21-7 19-5 23-2 15v41l4 30 3 16 11 29 9 17v7l-5-2-10-15-8-17-3-10-7-24v-20l-2-15v-40l2-18 8-34 11-24 10-13 5-5 4-5 8-7 9-7 15-10 13-6 10-4 15-7 25-7 28-6 26-3z" fill="#059694"/>
<path transform="translate(406,268)" d="m0 0h21l13 2 16 6 9 7 5 6 1 5-3 1-1 2-2-1h-12l-13 5-25 14-2 3 8 4 6 1v2l-3 1h-20l-24-1-48-1-7-1 1-5 9-11 13-13 14-10 23-11 14-4z" fill="#68D4D3"/>
<path transform="translate(1577,42)" d="m0 0h5v3l-5 3-16 5-11 1-16 7-12 6-18 5-10 6-6 5h-2v2l-8 7-13 13-8 7-5 5-6 9-4 8h-2l-2 5-10 21-9 23-4 19-2 16-1 30 2 13 3 16 2 5 6 37 5 17 9 27 9 15 8 12 5 9 12 13 3 4v2h2v2h2l7 8 4 5 23 13 14 8 8 6 4 4 1 4-6-1-15-9-27-16-14-11-12-11-9-11-11-15-10-16-8-16-9-23-7-24-6-31-1-7-1-18v-20l2-22 4-23 3-15 8-23 9-19 8-12 9-12 9-10 12-11 18-14 15-9 16-8 19-8 27-8z" fill="#059695"/>
<path transform="translate(1081,36)" d="m0 0h30l38 3 28 5v4l-6 1-5-1-18-1-35-1-59 1-32 2-10 4-8 2-10 4-32 13-19 10-10 6-12 6-8 5-7 4-8 6h-2l-1 3-10 8-11 7-4 3h-2v2l-6 4-14 12-12 12-7 11-7 10-8 11-11 19-7 10-9 19-7 15-5 10-4 11-7 16-3 7h-1v-9l10-28 15-34 12-22 12-19 11-15 9-11 12-14 9-9 8-7 14-12 18-13 18-12 15-9 18-10 16-8 19-8 20-7 23-7 29-6z" fill="#069795"/>
<path transform="translate(1488,503)" d="m0 0h18l14 3 16 7 19 8 20 13 11 8 20 9 17 5 22 5 25 1h22l16-4 13-2 20-8 8-1 2 1-1 4-18 8-17 5-30 5h-23l-33-5-16-5-23-10-20-11-19-12-13-5-19-8-15-3-13-1-12 3-10 9-6 7-13 20-9 15-8 16-5 15-2 9 1 10 4 12 9 8 12 6v3l-6 1-13-5-6-5-5-9-3-12 1-20 2-13 4-12 6-14 1-4h2l2-6 7-9 9-10 5-7 13-9 8-4z" fill="#059795"/>
<path transform="translate(757,456)" d="m0 0 6 2 6 12 5 19 3 12 10 27 6 10 9 19 6 11 10 16 4 5v2h2l11 14 14 15 7 8 12 11 11 7 13 13 10 7 11 8 20 12 27 14 7 5 2 5-7-1-28-15-26-16-23-16-18-14-13-11-19-19-9-11-11-14-10-14-9-14-17-33-12-31-10-34-1-2v-7z" fill="#059694"/>
<path transform="translate(1545,473)" d="m0 0 10 3 24 10 19 7 23 6 28 6 34 6 19 4 7 3v4l-8 3-14 1h-28l-22-5-16-5-17-8-16-8-17-8-16-8-12-5-3-3h6z" fill="#68D4D3"/>
<path transform="translate(511,315)" d="m0 0h5l1 1v6l-7 16-7 9-8 8-12 6-17 4-17 2-69 1h-26l2-5 7-3 6-1 28-1 44-1 21-1 15-3 10-4 5-5 10-13 4-10z" fill="#039593"/>
<path transform="translate(1208,469)" d="m0 0h21l17 4 12 6 10 7v2l4 2 5 7v6l-3 1-3-1-3-4v-2l-4-2-10-9-11-7-12-4-11-1-10 2-16 8-26 15-17 8-15 5-19 4-9 1h-21l-11-1 2-4 21-2 15-1 16-4 12-5 32-16 16-9 10-4z" fill="#059694"/>
<path transform="translate(1691,311)" d="m0 0h18l24 3 18 4 17 4 20 6 28 9 20 9 19 10 9 7 5 7v3l-5-1-8-6-22-12-19-9-28-10-21-7-36-7-34-4-9-3 1-2z" fill="#069795"/>
<path transform="translate(1667,31)" d="m0 0h37l36 2 30 5 26 6 2 2-1 1-15-1-10-2-16-3-12-2-10-2h-34l-37 1-35 2-31 4h-13l1-4 36-6 24-2z" fill="#099997"/>
<path transform="translate(1482,469)" d="m0 0h25l24 4 5 2v2l2 1-1 1h-8l-12-3-19-2h-9l-12 2-14 6-9 4-9 7-6 5-5 6-8 16-10 15-9 16-9 20-5 8-3 3h-2l1-6 9-20 12-23 14-22 8-12 8-10 8-7 17-9z" fill="#089896"/>
<path transform="translate(1215,431)" d="m0 0h14l20 4 17 8 15 10v2l-5-1-18-8-7-3-12-3h-29l-14 2-24 13-14 9-15 7-7 3-14 3-5-1 2-3 16-5 17-8 18-11 18-10 13-5z" fill="#079896"/>
<path transform="translate(516,541)" d="m0 0 11 1v3l-36 8-23 3-28 2h-33l-22-2-10-3 2-2 3-1h14l7 1h54l45-7 11-1z" fill="#099997"/>
<path transform="translate(1813,301)" d="m0 0 7 1 30 12 25 12 14 9 15 13 11 11 11 14 9 14 11 21 11 28v5l-4-1-8-22-4-8-5-14-7-10-10-16-11-13-10-10-7-5-7-2-9-6-12-6-10-6-21-11-11-5-8-3z" fill="#099997"/>
<path transform="translate(1221,57)" d="m0 0 9 2 20 8 25 13 19 12 11 8 17 12 13 11 10 11 10 15 6 16 1 9h-3l-3-8v-3h-2l-2-6-10-19-9-12-5-4-6-3v-2h-2l-5-6-17-8-7-9-16-8-11-7-8-3-6-4-21-7-8-5z" fill="#099997"/>
<path transform="translate(585,522)" d="m0 0h13l12 2 13 8 9 12 1 2v7h-4l-6-9-4-5-10-7-9-4h-12l-15 3-38 12-5-1-1-2 9-5 6-3 18-5 9-3z" fill="#059795"/>
<path transform="translate(618,90)" d="m0 0 5 1 15 13 21 21 11 14 12 17 9 15 13 24 16 36v4l-5-1-4-6-5-15-10-21-8-16-10-15-5-13-9-10v-2l-3-1-6-8-3-3v-2l-3-1-7-8-17-16-7-6z" fill="#089997"/>
<path transform="translate(1291,464)" d="m0 0 4 1 13 12 13 14 11 14 10 13 9 16 7 16 5 15v7l-4-1-5-17-17-34-11-14-6-8-5-6-9-11-4-4-5-3-5-6z" fill="#099997"/>
<path transform="translate(1404,656)" d="m0 0h7l10 7 12 8 11 7 7 5 14 7 14 10 3 3 1 4-5-1-25-15-25-14-18-12-7-5z" fill="#059695"/>
<path transform="translate(1887,79)" d="m0 0 9 2 14 10 8 8 9 13 6 12 3 13 1 11-2 10-3-1-2-8-3-22v-6l-3-5v-2l-3-1-6-8-7-8-6-4-16-8-1-3-2-1z" fill="#079796"/>
<path transform="translate(1577,42)" d="m0 0h5v3l-5 3-16 5-11 1-16 7-12 6-18 5-6 2 2-4 16-8 16-7 24-8z" fill="#069796"/>
<path transform="translate(668,537)" d="m0 0 6 3 8 15 11 27 4 11-1 4-6-4-3-8-3-9-10-17-5-12-1-5z" fill="#059695"/>
<path transform="translate(531,47)" d="m0 0 9 1 26 10 23 11 20 12 5 5h-6l-32-16-13-7-9-6-20-7z" fill="#089997"/>
<path transform="translate(437,31)" d="m0 0h14l32 3 27 5 2 1v2l-2 1h-10l-21-3-15-3-22-2-5-2z" fill="#099997"/>
<path transform="translate(1821,53)" d="m0 0 9 1 29 10 15 6 5 9-5-1-12-4-11-7-13-5-15-6z" fill="#079896"/>
<path transform="translate(380,31)" d="m0 0h19l4 2-5 2-41 3h-6l-3-2v-2l17-2z" fill="#089997"/>
<path transform="translate(473,315)" d="m0 0h1l-1 7-5 4-8 2-17 2h-7l-6-3v-2l30-2 8-3 3-1z" fill="#079795"/>
<path transform="translate(1114,474)" d="m0 0 4 1-1 2-13 2h-4v-2l-4-1z" fill="#16A19F"/>
<path transform="translate(1046,458)" d="m0 0 11 7v2l-7-2-4-4z" fill="#0C9B99"/>
<path transform="translate(1802,282)" d="m0 0 5 1-3 1z" fill="#68D4D3"/>
<path transform="translate(1798,283)" d="m0 0 2 1z" fill="#68D4D3"/>
<path transform="translate(1800,281)" d="m0 0 2 1z" fill="#68D4D3"/>
<path transform="translate(1797,280)" d="m0 0 2 1z" fill="#68D4D3"/>
<path transform="translate(1789,280)" d="m0 0 2 1z" fill="#68D4D3"/>
<path transform="translate(1874,310)" d="m0 0" fill="#68D4D3"/>
<path transform="translate(1807,284)" d="m0 0" fill="#68D4D3"/>
<path transform="translate(1801,284)" d="m0 0" fill="#68D4D3"/>
<path transform="translate(1796,282)" d="m0 0" fill="#68D4D3"/>
</svg>
